USFL
nRows=252
nColumns=2
inDegrees=yes
endheader
time	tib_ant_r	
2.86089	 74.630906	
2.89415	 74.621545	
2.92742	 74.621178	
2.96069	 74.623940	
2.99395	 74.627123	
3.02722	 74.608946	
3.06048	 74.587830	
3.09375	 74.555185	
3.12702	 74.551427	
3.16028	 74.515294	
3.19355	 74.552431	
3.22681	 74.544475	
3.26008	 74.509611	
3.29335	 74.513942	
3.32661	 74.529869	
3.35988	 74.535022	
3.39315	 74.501926	
3.42641	 74.473015	
3.45968	 74.467508	
3.49294	 74.464089	
3.52621	 74.460872	
3.55948	 74.456403	
3.59274	 74.452943	
3.62601	 74.425605	
3.65927	 74.417082	
3.69254	 74.405165	
3.72581	 74.418633	
3.75907	 74.427314	
3.79234	 74.438005	
3.8256	 74.481020	
3.85887	 74.470585	
3.89214	 74.443412	
3.9254	 74.387188	
3.95867	 74.476985	
3.99194	 74.449712	
4.0252	 74.314661	
4.05847	 74.312638	
4.09173	 74.331727	
4.125	 74.332084	
4.15827	 74.258530	
4.19153	 74.258295	
4.2248	 74.290959	
4.25806	 74.309659	
4.29133	 74.305296	
4.3246	 74.301972	
4.35786	 74.296709	
4.39113	 74.301886	
4.4244	 74.342158	
4.45766	 74.373788	
4.49093	 74.362714	
4.52419	 74.384910	
4.55746	 74.361842	
4.59073	 74.339683	
4.62399	 74.343293	
4.65726	 74.393120	
4.69052	 74.358004	
4.72379	 74.347206	
4.75706	 74.354042	
4.79032	 74.338258	
4.82359	 74.330172	
4.85685	 74.383188	
4.89012	 74.404725	
4.92339	 74.476283	
4.95665	 74.514450	
4.98992	 74.508867	
5.02319	 74.536036	
5.05645	 74.534304	
5.08972	 74.527834	
5.12298	 74.543514	
5.15625	 74.589487	
5.18952	 74.721647	
5.22278	 74.399720	
5.25605	 74.325693	
5.28931	 73.549686	
5.32258	 69.140103	
5.35585	 68.460717	
5.38911	 68.848373	
5.42238	 69.360918	
5.45565	 69.088949	
5.48891	 68.380684	
5.52218	 65.522081	
5.55544	 65.804564	
5.58871	 65.776072	
5.62198	 66.000428	
5.65524	 66.115167	
5.68851	 66.111353	
5.72177	 65.778970	
5.75504	 65.849315	
5.78831	 66.136370	
5.82157	 65.756722	
5.85484	 65.660961	
5.8881	 65.813479	
5.92137	 65.879160	
5.95464	 66.030767	
5.9879	 66.295932	
6.02117	 66.579328	
6.05444	 66.587787	
6.0877	 66.579462	
6.12097	 66.267897	
6.15423	 65.956619	
6.1875	 65.936248	
6.22077	 65.887039	
6.25403	 65.677568	
6.2873	 65.621226	
6.32056	 65.579643	
6.35383	 65.585342	
6.3871	 65.501272	
6.42036	 65.638449	
6.45363	 65.552930	
6.4869	 65.478607	
6.52016	 65.481844	
6.55343	 65.424858	
6.58669	 65.433416	
6.61996	 65.368252	
6.65323	 65.319925	
6.68649	 65.318933	
6.71976	 65.215754	
6.75302	 65.131691	
6.78629	 64.961266	
6.81956	 65.158062	
6.85282	 65.206115	
6.88609	 65.194325	
6.91935	 65.132294	
6.95262	 65.143590	
6.98589	 65.187968	
7.01915	 65.222440	
7.05242	 65.156712	
7.08569	 65.241145	
7.11895	 65.303011	
7.15222	 65.287136	
7.18548	 65.394026	
7.21875	 65.322476	
7.25202	 65.331948	
7.28528	 65.373578	
7.31855	 65.364911	
7.35181	 65.349034	
7.38508	 65.306803	
7.41835	 65.355448	
7.45161	 65.302738	
7.48488	 65.451248	
7.51815	 65.515899	
7.55141	 65.520947	
7.58468	 65.600035	
7.61794	 65.632140	
7.65121	 65.510287	
7.68448	 65.580685	
7.71774	 65.823386	
7.75101	 65.863630	
7.78427	 65.799835	
7.81754	 65.769382	
7.85081	 65.796925	
7.88407	 65.822154	
7.91734	 65.797706	
7.9506	 65.798647	
7.98387	 65.788863	
8.01714	 65.787388	
8.0504	 65.810736	
8.08367	 65.835156	
8.11694	 65.848585	
8.1502	 65.806472	
8.18347	 65.837892	
8.21673	 65.891570	
8.25	 65.930980	
8.28327	 65.964451	
8.31653	 65.989146	
8.3498	 65.960343	
8.38306	 66.005341	
8.41633	 66.032466	
8.4496	 66.036016	
8.48286	 66.033406	
8.51613	 66.117818	
8.5494	 66.303921	
8.58266	 66.314387	
8.61593	 66.446465	
8.64919	 66.582194	
8.68246	 66.718208	
8.71573	 66.687899	
8.74899	 66.807392	
8.78226	 66.801360	
8.81552	 66.869388	
8.84879	 66.855140	
8.88206	 66.840818	
8.91532	 66.854893	
8.94859	 66.986591	
8.98185	 67.086212	
9.01512	 67.030878	
9.04839	 67.054537	
9.08165	 66.982399	
9.11492	 66.964760	
9.14819	 66.903620	
9.18145	 66.870731	
9.21472	 66.867645	
9.24798	 66.904061	
9.28125	 66.880100	
9.31452	 67.050914	
9.34778	 67.624920	
9.38105	 67.610737	
9.41431	 67.518995	
9.44758	 67.404225	
9.48085	 67.424525	
9.51411	 67.216237	
9.54738	 67.180084	
9.58065	 66.993005	
9.61391	 66.963324	
9.64718	 67.093815	
9.68044	 67.521874	
9.71371	 68.069510	
9.74698	 68.236015	
9.78024	 68.304597	
9.81351	 68.154324	
9.84677	 67.891589	
9.88004	 67.721469	
9.91331	 67.699095	
9.94657	 67.647054	
9.97984	 67.911671	
10.0131	 68.529784	
10.0464	 68.434957	
10.0796	 68.961170	
10.1129	 84.240419	
10.1462	 84.434832	
10.1794	 85.112339	
10.2127	 85.593792	
10.246	 85.578184	
10.2792	 85.681575	
10.3125	 85.487547	
10.3458	 85.290963	
10.379	 85.003432	
10.4123	 84.838560	
10.4456	 84.864014	
10.4788	 84.656283	
10.5121	 84.634015	
10.5454	 84.679672	
10.5786	 84.726711	
10.6119	 84.692691	
10.6452	 84.633722	
10.6784	 84.630351	
10.7117	 84.631555	
10.745	 84.602695	
10.7782	 84.668245	
10.8115	 84.720574	
10.8448	 84.752112	
10.878	 84.732878	
10.9113	 84.692833	
10.9446	 84.687590	
10.9778	 84.657744	
11.0111	 84.666634	
11.0444	 84.662767	
11.0776	 84.636075	
11.1109	 84.591341	
11.1442	 84.601117	
11.1774	 84.613979	
11.2107	 84.613075	
